<?xml version="1.0" encoding="utf-8"?>
<!-- Generator: Adobe Illustrator 19.1.0, SVG Export Plug-In . SVG Version: 6.00 Build 0)  -->
<svg version="1.1" id="Layer_1" xmlns="http://www.w3.org/2000/svg" xmlns:xlink="http://www.w3.org/1999/xlink" x="0px" y="0px"
	 viewBox="0 0 400 400" enable-background="new 0 0 400 400" xml:space="preserve">
<metadata><?xpacket begin="﻿" id="W5M0MpCehiHzreSzNTczkc9d"?>
<x:xmpmeta xmlns:x="adobe:ns:meta/" x:xmptk="Adobe XMP Core 5.6-c067 79.157747, 2015/03/30-23:40:42        ">
   <rdf:RDF xmlns:rdf="http://www.w3.org/1999/02/22-rdf-syntax-ns#">
      <rdf:Description rdf:about=""/>
   </rdf:RDF>
</x:xmpmeta>
                                                                                                    
                                                                                                    
                                                                                                    
                                                                                                    
                                                                                                    
                                                                                                    
                                                                                                    
                                                                                                    
                                                                                                    
                                                                                                    
                                                                                                    
                                                                                                    
                                                                                                    
                                                                                                    
                                                                                                    
                                                                                                    
                                                                                                    
                                                                                                    
                                                                                                    
                                                                                                    
                           
<?xpacket end="w"?></metadata>
<path fill="#328BCB" d="M213.7,279.3c0,0-55,26.9-64,32.5c-9,5.6-12.4,8.2-16.9,14.7c-13.9,20.3-8.6,48,11.9,61.9
	c20.5,13.8,48.4,8.5,62.3-11.8c4.5-6.6,5.3-10.3,7.6-21.5c2.3-11.2,6.2-71.1,6.2-71.1C221.2,279.3,218,277.2,213.7,279.3z"/>
<path fill="#328BCB" d="M94.7,279.3c0,0-55,26.9-64,32.5c-9,5.6-12.4,8.2-16.9,14.7c-13.9,20.3-8.6,48,11.9,61.9
	c20.5,13.8,48.4,8.5,62.3-11.8c4.5-6.6,5.3-10.3,7.6-21.5c2.3-11.2,6.2-71.1,6.2-71.1C102.1,279.3,98.9,277.2,94.7,279.3z"/>
<g>
	<path fill="#F8AD1D" d="M173,146.2c0,40.5,32.2,73.3,71.8,73.3c39.7,0,71.8-32.8,71.8-73.3s-32.1-73.3-71.8-73.3
		C205.2,72.8,173,105.7,173,146.2z M373.8,134.5h-26.2c-6.1,0-11.2,5.1-11.2,11.4v0.5c0,6.3,5,11.4,11.2,11.4h26.2
		c6.2,0,11.2-5.1,11.2-11.4v-0.5C385,139.6,380,134.5,373.8,134.5z M315.2,22.4l-0.5-0.3c-5.3-3.1-12.2-1.3-15.3,4.2l-13.1,23.2
		c-3.1,5.4-1.2,12.5,4.1,15.6l0.5,0.3c5.3,3.1,12.2,1.3,15.3-4.2L319.3,38C322.3,32.5,320.5,25.5,315.2,22.4z M199.3,227.3l-0.5-0.3
		c-5.3-3.1-12.2-1.3-15.3,4.2l-13.1,23.2c-3.1,5.4-1.2,12.5,4.1,15.6l0.5,0.3c5.3,3.1,12.2,1.3,15.3-4.2l13.1-23.2
		C206.5,237.4,204.6,230.4,199.3,227.3z M306.1,231.2c-3.1-5.4-9.9-7.3-15.3-4.2l-0.5,0.3c-5.3,3.1-7.2,10.2-4.1,15.6l13.1,23.2
		c3.1,5.4,9.9,7.3,15.3,4.2l0.5-0.3c5.3-3.1,7.2-10.2,4.1-15.6L306.1,231.2z M183.6,61.2c3.1,5.4,9.9,7.3,15.3,4.2l0.5-0.3
		c5.3-3.1,7.2-10.1,4.1-15.6l-13.1-23.2c-3.1-5.4-9.9-7.3-15.3-4.2l-0.5,0.3c-5.3,3.1-7.2,10.1-4.1,15.6L183.6,61.2z M362.3,201.9
		l-22.7-13.4c-5.3-3.1-12.2-1.3-15.3,4.2l-0.3,0.5c-3.1,5.4-1.2,12.4,4.1,15.6l22.7,13.4c5.3,3.1,12.2,1.3,15.3-4.2l0.3-0.5
		C369.4,212,367.6,205,362.3,201.9z M324.3,99.7c3.1,5.4,9.9,7.3,15.3,4.2l22.7-13.4c5.3-3.1,7.2-10.2,4.1-15.6l-0.3-0.5
		c-3.1-5.4-9.9-7.3-15.3-4.2l-22.7,13.4c-5.3,3.2-7.2,10.2-4.1,15.6L324.3,99.7z M244.6,52.7h0.5c6.1,0,11.2-5.1,11.2-11.4V14.5
		c0-6.3-5-11.4-11.2-11.4h-0.5c-6.1,0-11.2,5.1-11.2,11.4v26.8C233.4,47.6,238.5,52.7,244.6,52.7z M245.1,239.6h-0.5
		c-6.1,0-11.2,5.1-11.2,11.4v26.8c0,6.3,5,11.4,11.2,11.4h0.5c6.1,0,11.2-5.1,11.2-11.4V251C256.3,244.8,251.3,239.6,245.1,239.6z"
		/>
	<path fill="#D8D9D9" d="M226.4,101.2c-5,0-9.8,0.7-14.4,1.9c-8.6-25.4-32-43.7-59.5-43.7c-33.7,0-61.2,27.4-63,61.8
		c-2.1-0.3-4.1-0.5-6.3-0.5c-26.2,0-47.4,22-47.4,49.2c0,27.2,21.2,49.2,47.4,49.2h143.2c31.4,0,56.9-26.4,56.9-59
		C283.3,127.6,257.8,101.2,226.4,101.2z"/>
</g>
</svg>
