<svg xmlns="http://www.w3.org/2000/svg" width="56" height="56" viewBox="0 0 56 56"><path d="M18.168 19.483c0 5.524 4.387 10.001 9.796 10.001 5.412 0 9.795-4.477 9.795-10.001s-4.384-10.001-9.794-10.001-9.797 4.476-9.797 10.001zm-2.69.036v-.072c0-.857-.686-1.557-1.524-1.557h-3.579c-.839 0-1.525.699-1.525 1.557v.072c0 .857.686 1.557 1.525 1.557h3.579c.838 0 1.524-.7 1.524-1.557zm30.079-1.629h-3.579c-.839 0-1.524.699-1.524 1.557v.072c0 .857.686 1.557 1.524 1.557h3.579c.838 0 1.523-.699 1.523-1.557v-.072c0-.858-.685-1.557-1.523-1.557zm-8.002-15.289l-.062-.037c-.729-.427-1.664-.172-2.082.57l-1.79 3.164c-.421.742-.169 1.699.558 2.125l.061.037c.727.427 1.664.172 2.082-.568l1.789-3.165c.42-.742.168-1.697-.556-2.126zm-15.803 27.942l-.062-.037c-.726-.426-1.663-.172-2.083.568l-1.79 3.166c-.417.74-.168 1.699.558 2.125l.062.037c.727.428 1.664.172 2.083-.568l1.789-3.166c.42-.74.17-1.697-.557-2.125zm14.57.531c-.418-.74-1.355-.996-2.082-.568l-.062.037c-.727.428-.978 1.385-.558 2.125l1.79 3.166c.418.74 1.354.998 2.082.568l.062-.037c.725-.426.977-1.385.557-2.125l-1.789-3.166zm-16.715-23.182c.419.74 1.356.997 2.083.568l.062-.037c.727-.426.978-1.383.558-2.125l-1.79-3.164c-.419-.742-1.355-.999-2.083-.57l-.062.037c-.725.428-.975 1.384-.556 2.126l1.788 3.165zm-2.997 3.059l-3.1-1.827c-.726-.427-1.663-.171-2.082.571l-.036.063c-.419.739-.168 1.698.558 2.125l3.101 1.826c.726.427 1.662.173 2.083-.568l.036-.063c.418-.743.166-1.698-.56-2.127zm27.369 16.132l-3.099-1.828c-.726-.426-1.663-.172-2.083.57l-.035.062c-.42.742-.169 1.698.559 2.127l3.099 1.827c.726.428 1.663.172 2.082-.57l.036-.062c.417-.743.167-1.698-.559-2.126zm-26.846-1.257c-.42-.742-1.356-.998-2.083-.57l-3.1 1.828c-.727.428-.979 1.383-.558 2.125l.036.062c.419.742 1.355.998 2.083.57l3.099-1.827c.727-.429.978-1.385.559-2.127l-.036-.061zm21.664-12.685c.42.741 1.357.997 2.083.568l3.101-1.826c.727-.427.977-1.386.559-2.125l-.036-.063c-.419-.742-1.356-.998-2.084-.571l-3.099 1.827c-.727.43-.977 1.385-.558 2.127l.034.063zm-10.868-6.407h.071c.839 0 1.525-.699 1.525-1.555v-3.654c0-.856-.685-1.556-1.525-1.556h-.071c-.839 0-1.524.699-1.524 1.556v3.654c-.001.856.685 1.555 1.524 1.555zm.071 25.498h-.071c-.839 0-1.524.701-1.524 1.555v3.656c0 .855.686 1.555 1.524 1.555h.071c.839 0 1.525-.699 1.525-1.555v-3.656c0-.853-.684-1.555-1.525-1.555z" fill="#FAAD1C"/></svg>